<svg width="31" height="31" viewBox="0 0 31 31" fill="none" xmlns="http://www.w3.org/2000/svg">
<rect width="31" height="31" rx="8" fill="white"/>
<path d="M15.8326 23C20.3714 23 23 22.2773 23 18.5809C23 15.3202 19.778 14.5792 16.6516 14.0901L16.1172 14.0083C16.0285 13.995 15.94 13.9817 15.8518 13.9685L15.519 13.9183C12.9442 13.5292 12.4867 13.1622 12.4867 12.507C12.4867 12.0486 12.9547 11.2301 15.1965 11.2301C17.5369 11.2301 18.5266 11.851 18.5266 13.0243V13.1526H22.6079V13.0251C22.6079 10.7331 21.321 8 15.1965 8C9.52343 8 8.33243 10.4792 8.33243 12.5588C8.33243 15.5299 10.9663 16.4783 15.2184 17.044C15.4187 17.0703 15.6305 17.0958 15.8458 17.1213C17.4368 17.3101 18.8699 17.5234 18.8699 18.6423C18.8699 19.6109 17.3303 19.8138 15.7262 19.8138C13.0601 19.8138 12.1191 19.2457 12.1191 17.9722V17.8439H8.002L8.00042 18.1329L8 18.4368C8.00806 19.1948 8.11247 20.2716 9.00751 21.1821C10.1951 22.3878 12.4912 23 15.8326 23Z" fill="#1D2026"/>
</svg>
