<?xml version="1.0" standalone="no"?>
<!DOCTYPE svg PUBLIC "-//W3C//DTD SVG 20010904//EN"
 "http://www.w3.org/TR/2001/REC-SVG-20010904/DTD/svg10.dtd">
<svg version="1.0" xmlns="http://www.w3.org/2000/svg"
 width="700.000000pt" height="700.000000pt" viewBox="0 0 700.000000 700.000000"
 preserveAspectRatio="xMidYMid meet">
<metadata>
Created by potrace 1.14, written by Peter Selinger 2001-2017
</metadata>
<g transform="translate(0.000000,700.000000) scale(0.100000,-0.100000)"
fill="#000000" stroke="none">
<path d="M1659 6996 c-2 -2 -33 -7 -69 -10 -36 -4 -108 -16 -160 -27 -474 -98
-898 -394 -1157 -810 -131 -210 -229 -485 -261 -736 -9 -77 -9 -3740 1 -3822
4 -35 9 -73 12 -85 3 -11 7 -32 9 -46 44 -254 175 -541 352 -771 55 -72 189
-209 264 -271 269 -222 587 -359 935 -405 75 -10 3724 -11 3821 -1 39 4 77 10
85 12 8 3 28 7 44 9 61 9 203 49 293 83 365 135 677 388 893 724 109 169 215
438 245 620 2 14 6 34 9 45 2 11 8 49 12 85 10 84 11 3735 0 3818 -4 34 -12
86 -18 115 -6 29 -12 63 -15 77 -3 14 -9 39 -15 56 -5 17 -11 40 -13 50 -9 43
-60 175 -102 264 -228 480 -658 836 -1169 970 -44 11 -134 29 -200 40 -114 18
-205 19 -1956 19 -1010 1 -1838 -1 -1840 -3z"/>
</g>
</svg>
